<svg width="512" height="438" viewBox="0 0 512 438" fill="none" xmlns="http://www.w3.org/2000/svg">
<path d="M244 42.0001L255.1 54.0001L267.1 42.0201C300.6 9.37011 347 -5.48988 392.6 2.10012C461.5 13.5801 512 73.2001 512 143.1V148.9C512 190.4 494.8 230.1 464.4 258.4L283.7 427.1C276.2 434.1 266.3 438 256 438C245.7 438 235.8 434.1 228.3 427.1L47.59 258.4C17.23 230.1 0 190.4 0 148.9V143.1C0 73.2001 50.52 13.5801 119.4 2.10012C164.1 -5.48988 211.4 9.37012 244 42.0001C244 42.0101 243.1 42.0001 244 42.0001ZM255.1 121.9L210.1 75.1001C188.4 54.2801 157.6 44.4001 127.3 49.4401C81.55 57.0701 48 96.7001 48 143.1V148.9C48 177.1 59.71 204.1 80.34 223.3L256 387.3L431.7 223.3C452.3 204.1 464 177.1 464 148.9V143.1C464 96.7001 430.4 57.0701 384.7 49.4401C354.4 44.4001 323.6 54.2801 301.9 75.1001L255.1 121.9Z" fill="white"/>
</svg>
